<?xml version="1.0" encoding="UTF-8"?>
<svg version="1.1" xmlns="http://www.w3.org/2000/svg" width="32" height="32">
<path d="M0 0 C2.640625 1.33984375 2.640625 1.33984375 5.25 2.9375 C6.12140625 3.46214844 6.9928125 3.98679687 7.890625 4.52734375 C10 6 10 6 11 8 C11.20308225 10.47760344 11.32331994 12.89435735 11.375 15.375 C11.41238281 16.04789063 11.44976563 16.72078125 11.48828125 17.4140625 C11.5234375 19.3984375 11.5234375 19.3984375 11 23 C8.69140625 25.33203125 8.69140625 25.33203125 6 27 C5.40316406 27.42925781 4.80632813 27.85851562 4.19140625 28.30078125 C1.45047354 30.0031831 -0.63967466 30.98433368 -3.875 31.125 C-8.61566061 29.41836218 -13.40615167 26.59384833 -17 23 C-17.20798937 20.56355304 -17.32444728 18.19031774 -17.375 15.75 C-17.43107422 14.74646484 -17.43107422 14.74646484 -17.48828125 13.72265625 C-17.55686048 9.84411993 -17.16632604 8.2046656 -14.6953125 5.1640625 C-6.01087345 -1.80866102 -6.01087345 -1.80866102 0 0 Z M-4 15 C-3.67 15.66 -3.34 16.32 -3 17 C-2.67 16.34 -2.34 15.68 -2 15 C-2.66 15 -3.32 15 -4 15 Z " fill="#FEC102" transform="translate(19,1)"/>
<path d="M0 0 C2.67578125 1.33984375 2.67578125 1.33984375 5.3125 2.9375 C6.19550781 3.46214844 7.07851563 3.98679687 7.98828125 4.52734375 C8.65214844 5.01332031 9.31601562 5.49929687 10 6 C10 6.66 10 7.32 10 8 C7.55078125 9.796875 7.55078125 9.796875 4.3125 11.75 C3.25675781 12.40484375 2.20101563 13.0596875 1.11328125 13.734375 C-2 15 -2 15 -4.59375 14.3671875 C-5.3878125 13.91601562 -6.181875 13.46484375 -7 13 C-8.21623047 12.36191406 -8.21623047 12.36191406 -9.45703125 11.7109375 C-10.62298828 11.04964844 -10.62298828 11.04964844 -11.8125 10.375 C-12.60269531 9.92898438 -13.39289062 9.48296875 -14.20703125 9.0234375 C-14.79871094 8.68570312 -15.39039063 8.34796875 -16 8 C-14.75737548 4.27212644 -13.54939866 3.76087611 -10.25 1.75 C-8.95835938 0.93789063 -8.95835938 0.93789063 -7.640625 0.109375 C-4.45917434 -1.22721078 -3.23508433 -1.10527842 0 0 Z " fill="#3E977B" transform="translate(19,1)"/>
<path d="M0 0 C0.99 0.33 1.98 0.66 3 1 C2.979375 1.80824219 2.95875 2.61648437 2.9375 3.44921875 C2.90071791 9.6430569 2.90071791 9.6430569 5.63671875 14.9453125 C8.87890448 17.10676965 11.21196583 17.98423932 15.125 18.0625 C20.00123351 16.27883634 20.00123351 16.27883634 24 13 C24.81521986 8.99849597 24.98717974 5.07684327 25 1 C25.99 0.67 26.98 0.34 28 0 C28.13536629 2.41854446 28.23420279 4.82949783 28.3125 7.25 C28.35439453 7.93191406 28.39628906 8.61382812 28.43945312 9.31640625 C28.48828125 11.328125 28.48828125 11.328125 28 15 C25.6953125 17.33984375 25.6953125 17.33984375 23 19 C22.40316406 19.42925781 21.80632813 19.85851562 21.19140625 20.30078125 C18.45047354 22.0031831 16.36032534 22.98433368 13.125 23.125 C8.38433939 21.41836218 3.59384833 18.59384833 0 15 C-0.07313567 12.46950598 -0.09247527 9.96695163 -0.0625 7.4375 C-0.05798828 6.72658203 -0.05347656 6.01566406 -0.04882812 5.28320312 C-0.03700864 3.52209987 -0.01907263 1.76103964 0 0 Z " fill="#F6EC62" transform="translate(2,9)"/>
<path d="M0 0 C9.3125 3.625 9.3125 3.625 11 7 C11.06996014 8.70702735 11.08440154 10.41668003 11.0625 12.125 C11.05347656 13.03507812 11.04445313 13.94515625 11.03515625 14.8828125 C11.02355469 15.58148438 11.01195312 16.28015625 11 17 C6.5062233 15.74592278 3.01974273 14.64145446 0 11 C-0.42206666 7.29756716 -0.28780082 3.70943274 0 0 Z " fill="#ED8A02" transform="translate(5,11)"/>
<path d="M0 0 C2.67578125 1.33984375 2.67578125 1.33984375 5.3125 2.9375 C6.19550781 3.46214844 7.07851563 3.98679687 7.98828125 4.52734375 C8.65214844 5.01332031 9.31601562 5.49929687 10 6 C10 6.66 10 7.32 10 8 C9.01 8.33 8.02 8.66 7 9 C5.1328125 7.96875 5.1328125 7.96875 3.125 6.5 C0.01926891 4.41598399 0.01926891 4.41598399 -3.625 3.9375 C-6.21082154 5.0064905 -6.21082154 5.0064905 -9.0625 7.125 C-12 9 -12 9 -14.375 8.75 C-14.91125 8.5025 -15.4475 8.255 -16 8 C-14.75737548 4.27212644 -13.54939866 3.76087611 -10.25 1.75 C-8.95835938 0.93789063 -8.95835938 0.93789063 -7.640625 0.109375 C-4.45917434 -1.22721078 -3.23508433 -1.10527842 0 0 Z " fill="#25CDF8" transform="translate(19,1)"/>
<path d="M0 0 C0.99 0.33 1.98 0.66 3 1 C2.95617187 1.79664063 2.91234375 2.59328125 2.8671875 3.4140625 C2.87556097 6.85556052 3.03824269 9.68680963 4 13 C6.49448739 15.16727184 8.82791034 16.39734646 11.84765625 17.71875 C12.55792969 18.1415625 13.26820312 18.564375 14 19 C14 20.32 14 21.64 14 23 C8.60005726 21.65001432 3.25029808 19.68139948 0 15 C-0.69289634 9.90987688 -0.46733684 5.1017605 0 0 Z " fill="#FDD858" transform="translate(2,9)"/>
</svg>
